# xmcd
#
# Track frame offsets:
#  150
#  10455
#  22103
#  33037
#  45974
#  56609
#  70160
#  82950
#  94238
#  105601
#  118228
#  130303
#  143247
#  155417
#  166996
#  180897
#
# Disc length: 2596 seconds
#
# Revision: 0
# Processed by: cddbd v1.5.2PL0 Copyright (c) Steve Scherf et al.
# Submitted via: AltoMP3_Maker 3.0
#
DISCID=ca0a2210
DTITLE=Various Artist - Country Classics Vol10
DYEAR=1900
DGENRE=
TTITLE0=Six Days On The Road
TTITLE1=Don't Rob Another Man's Castle
TTITLE2=Kisses On Paper
TTITLE3=Vaya Con Dios
TTITLE4=San Antonio Rose
TTITLE5=Hide Your Face
TTITLE6=Rosetta
TTITLE7=Don't Let The Stars Get You In Your Eyes
TTITLE8=English Sweetheart
TTITLE9=Nobod'y Darlin' But Mine
TTITLE10=A Rip Rip Snortin', Two-Ton Gal
TTITLE11=Black Mountain Rag
TTITLE12=Half As Much
TTITLE13=Hangover Blues
TTITLE14=A Hobo's Meditation
TTITLE15=Sunshine
EXTD=
EXTT0=
EXTT1=
EXTT2=
EXTT3=
EXTT4=
EXTT5=
EXTT6=
EXTT7=
EXTT8=
EXTT9=
EXTT10=
EXTT11=
EXTT12=
EXTT13=
EXTT14=
EXTT15=
PLAYORDER=
